<?xml version="1.0" encoding="UTF-8"?>
<svg id="Layer_1" data-name="Layer 1" xmlns="http://www.w3.org/2000/svg" xmlns:xlink="http://www.w3.org/1999/xlink" viewBox="0 0 50 32.25">
  <defs>
    <style>
      .cls-1 {
        fill: url(#New_Gradient_Swatch_copy_7-2);
      }

      .cls-1, .cls-2, .cls-3, .cls-4 {
        stroke-width: 0px;
      }

      .cls-2 {
        fill: url(#New_Gradient_Swatch_copy_7-3);
      }

      .cls-3 {
        fill: url(#New_Gradient_Swatch_copy_7-4);
      }

      .cls-4 {
        fill: url(#New_Gradient_Swatch_copy_7);
      }

      .cls-5 {
        fill: none;
        stroke: url(#linear-gradient);
        stroke-miterlimit: 10;
      }
    </style>
    <linearGradient id="New_Gradient_Swatch_copy_7" data-name="New Gradient Swatch copy 7" x1="-7.24" y1="9.34" x2="130.02" y2="44.09" gradientUnits="userSpaceOnUse">
      <stop offset="0" stop-color="#259fdd"/>
      <stop offset=".54" stop-color="#105abf"/>
      <stop offset="1" stop-color="#563e74"/>
    </linearGradient>
    <linearGradient id="New_Gradient_Swatch_copy_7-2" data-name="New Gradient Swatch copy 7" x1="-6.74" y1="7.37" x2="130.52" y2="42.11" xlink:href="#New_Gradient_Swatch_copy_7"/>
    <linearGradient id="New_Gradient_Swatch_copy_7-3" data-name="New Gradient Swatch copy 7" x1="-5.94" y1="4.21" x2="131.32" y2="38.95" xlink:href="#New_Gradient_Swatch_copy_7"/>
    <linearGradient id="New_Gradient_Swatch_copy_7-4" data-name="New Gradient Swatch copy 7" x1="-5.46" y1="2.3" x2="131.81" y2="37.04" xlink:href="#New_Gradient_Swatch_copy_7"/>
    <linearGradient id="linear-gradient" x1=".71" y1="30.41" x2="49.71" y2="30.41" gradientUnits="userSpaceOnUse">
      <stop offset="0" stop-color="#259fdd"/>
      <stop offset="1" stop-color="#1a56b5"/>
    </linearGradient>
  </defs>
  <g>
    <g>
      <path class="cls-4" d="m10.34,26.91h-3.05l4.84-8.45c-.95.28-1.86.39-2.73.39C4.14,18.85,0,14.3,0,9.36,0,3.54,5.01,0,9.53,0c5.64,0,9.36,4.73,9.36,9.5,0,1.58-.39,3.15-1.23,4.63l-7.32,12.79Zm-.91-24.25c-3.01,0-6.76,2.35-6.76,6.76,0,3.47,2.94,6.8,6.8,6.8,3.33,0,6.8-2.63,6.8-6.83,0-.56-.07-1.16-.25-1.75-.91-3.26-3.71-4.98-6.59-4.98Z"/>
      <path class="cls-1" d="m13.29,6.41c-2.04,1.96-3.34,4.67-3.43,7.65.76-.03,1.51-.2,2.23-.48.18-1.91.99-3.67,2.21-5.05-.23-.8-.58-1.51-1.01-2.12Zm7.64-3.11c-.47,0-.93.03-1.38.09.46.66.84,1.37,1.13,2.11.08,0,.17,0,.25,0,4.83,0,8.85,4.04,8.85,8.87s-4.04,8.85-8.85,8.85c-1.98,0-3.82-.67-5.32-1.8l-1.11,1.94c1.82,1.31,4.04,2.09,6.43,2.09,6.03,0,11.07-5.01,11.07-11.07S26.96,3.3,20.93,3.3Z"/>
    </g>
    <g>
      <path class="cls-2" d="m39.04,11.49c-.27,0-1.19-.01-1.68-.01h-.57v6.89c0,.49.01,1.42.01,1.68h-1.36c0-.27.01-1.19.01-1.68v-6.89h-.57c-.49,0-1.42.01-1.68.01v-1.26c.27,0,1.19.01,1.68.01h2.48c.49,0,1.42-.01,1.68-.01v1.26Z"/>
      <path class="cls-3" d="m48.95,18.37c0,.49.01,1.42.01,1.68h-1.36c0-.27.01-1.19.01-1.68v-3.01h-4.68v3.01c0,.49.01,1.42.01,1.68h-1.36c0-.27.01-1.19.01-1.68v-6.44c0-.49-.01-1.41-.01-1.68h1.36c0,.27-.01,1.19-.01,1.68v2.2h4.68v-2.2c0-.49-.01-1.41-.01-1.68h1.36c0,.27-.01,1.19-.01,1.68v6.44Z"/>
    </g>
  </g>
  <line class="cls-5" x1="49.71" y1="30.41" x2=".71" y2="30.41"/>
</svg>