<?xml version="1.0" encoding="utf-8"?>
<!-- Generator: Adobe Illustrator 21.1.0, SVG Export Plug-In . SVG Version: 6.00 Build 0)  -->
<svg version="1.1" id="Layer_1" xmlns="http://www.w3.org/2000/svg" xmlns:xlink="http://www.w3.org/1999/xlink" x="0px" y="0px"
	 viewBox="0 0 393.3 218" style="enable-background:new 0 0 393.3 218;" xml:space="preserve">
<style type="text/css">
	.st0{fill:#00508D;}
	.st1{fill:#DBDDDC;}
	.st2{fill:#CD2028;}
	.st3{fill:#BACFE2;}
	.st4{fill:#025FA3;}
	.st5{fill:#FFFFFF;}
	.st6{fill:#E9262A;}
	.st7{fill:#323333;}
</style>
<g>
	<g>
		<polygon class="st0" points="383.1,80.2 323.9,80.2 323.9,127.3 378.2,127.3 366.6,108 		"/>
		<polygon class="st0" points="2.7,79.7 61.9,79.7 61.9,126.9 7.7,126.9 19.2,107.6 		"/>
		<polygon class="st1" points="72.8,128.8 6.2,128.8 7.6,126.9 72.8,126.9 		"/>
		<polygon class="st2" points="91.2,135.5 0,135.5 5.9,128.8 91.2,128.8 		"/>
		<polygon class="st1" points="313.1,129.3 379.8,129.3 378.4,127.3 313.1,127.3 		"/>
	</g>
	<polygon class="st2" points="272.8,138.8 387.6,138.8 380.2,130.2 272.8,130.2 	"/>
</g>
<g>
	<path class="st3" d="M382.5,28.3c0.2-3.3-3.1-3-3.8-5.3c-0.8-3.6-2.3-6.4-3.1-9.9c-1.9,0.1-2.4-1.2-3.8-1.5c-1.3,2.4-2.6,2-5.3,1.5
		c-1.2,2.4-2.3,4.9-3.1,7.6c1.8,2.1-1,4.4,0.8,6.9c-1.8,0.9-1.3,3.2-2.3,4.6c-0.6,0.9-2.4,0.8-3.1,1.5c-1,1.2,0.8,3.4-1.5,3.1
		c-1.5-1.3-1,0.1-3.1,0c-3.8,3-11.2,2.5-16,4.6c-2,1.9-2.8,4.8-4.6,6.9c0.7,6.3-1.4,9.8-6.1,10.7c-3.9-1.3-7.8-0.2-10.7,1.5
		c-0.1,2.4,2.4,2.2,1.5,5.3c-2.4,3.2-5.9,5.3-9.2,7.6c-1.1,0.3-1.3,0.9-2.3,0c-1.1,3.7-4.9,4.8-8.4,6.1c-1.6-1.2-5-0.6-6.1-2.3
		c1.7-1.6,2.9-3.7,3.1-6.9c1.1-0.7,2.4-1.1,2.3-3.1c0.4-2.7-0.9-3.7-1.5-5.3c-1.3-1.2-1.6-3.5-3.8-3.8c-2.8,0-1.9,3.7-4.6,3.8
		c-1-2.4,1-2.8,1.5-3.8c0.7-1.4,1.1-2.2,1.5-3.8c0.9-3.7-2.4-3.2-1.5-6.9c-4-0.1-7.8-4.4-12.2-1.5c1.1,0.2,0.9,1.7,1.5,2.3
		c-2.9,0.7-1.8,1.8-1.5,4.6c-2.4,0.4-2-2.6-3.8-0.8c-1.5,1-2.3,5.1-0.8,6.9c-3.6,2.6-0.6,9.7,0.8,12.2c-0.8,4.1-0.4,9.2-4.6,9.9
		c-1.8-2-3.7-3.9-4.6-6.9c-0.4-9,0.3-17.1,3.1-22.9c-2.9-1.5-2.6,3.9-3.8,1.5c0.9-3.1,3-5.2,4.6-7.6c2.4,2.4,2.7-1.8,5.4-1.5
		c4.7,0.6,7.5-0.6,10.7-1.5c0.6-4.6-6.6-1.6-6.1-6.1c-2.3,0.5-3.3,2.3-6.9,1.5c-1.8,0.7-2,3.1-5.3,2.3c-2.2-0.1-2.8-1.7-3.8-3.1
		c-1.9-1-3.7,1.7-3.8,0c1.1-1.2,1.6-3,2.3-4.6c-3.9-0.6-3.6,3-6.1,3.8c-4.1,0.8-5.3,4.4-9.9,4.6c0.2-1,1.1-1.5,0.8-3.1
		c-3.5,0.1-4.6,2.5-8.4,2.3c2.5-2.6,4.7-5.5,7.6-7.6c2.6-1.2,5.8-1.9,7.6-3.8c-2.5,0.7-4.7-0.8-5.3-0.8s-1.1,0.9-1.5,0.8
		c-0.9-0.2-1.5-1.6-2.3-1.5c-1.1,0.1-1.4,2.1-3.1,1.5c-3.1-1.7-6.2-3.5-9.9-4.6c-2.5,2.4-4.7,0.2-8.4,0c-0.2-2.3,0.1-5.2-2.3-5.3
		c-2.1-0.5,0.5,3.6-1.5,3.1c-27.2,0.1-54.9-2.6-77.9-5.3c-11.8-1.4-22.9-3.1-32.1-5.3c-3.3-0.8-6.6-1.1-9.2-3.1
		c-0.8,2.3-2-0.9-3.1-0.8C90.7,7.1,85.2,5.1,80,3.8C74.5,2.5,69.2,1,63.9,0c-1.5,2.3,0.3,5.5-0.8,6.9C59,5.7,55.7,3.6,51.7,2.3
		c-2.2,5.5,1,14.8-1.5,18.3c1.1,0.1,2.8-0.3,3.1,0.8c-1.8-0.2-2.9,0.1-3.8,0.8c0.9,4.2-2.4,4.2-1.5,8.4c-2.5,2.6-4,6.2-4.6,10.7
		c-1.8,1.5-4.1,2.5-4.6,5.3c0.9,9.8-2.5,15.3-5.3,21.4c0.1,1.7,1.3,2.3,1.5,3.8c0.6,3.5-1.2,6.9-1.5,9.9c0.8,1.5,1.9,2.7,3.1,3.8
		c-1.5,0.1,0.9,2.6,0,4.6c2.9-0.4,0.5,4.6,3.1,4.6c-1.1,0.1-0.7,1.8-0.8,3.1c2.6,3.3,1.9,3.7,1.5,8.4c2.5,5.4,5.4,9.8,3.8,17.3
		c4.9,0.7,7.9,3.1,9.9,6.6c1,0,2,0,3.1,0c0.6,3.5,4.5,5.1,4.5,9.7c0,1.8,0,3.6,0,5.3c7,0.2,10.7,1.8,16.9,1.5
		c1.9,1.3,0.9,1.3,1.9,3.1c8.4,4.1,16.2,8.9,23.9,13.7c7.4,0.8,13.8,2.6,21.5,3.1c-0.1-1.9,0.4-3.2,1.6-3.8
		c3.5,0.8,7.5,1.2,11.5,1.5c2.5,7.2,11.6,7.8,10.7,18.3c3.7,2.7,7.1,5.7,11.5,7.6c1.5-2.1,2.6-4.5,4.6-6.1c2.6-1.3,4.5,0.6,8.4,0
		c2.2,4.4,6.4,6.9,6.9,13c1,0.8,2.3,1.3,3.1,2.3c-0.9,3.5,2.7,2.4,3.1,4.6c-1.7,2.8,2.8,5.1,2.3,9.2c2.5,0.6,4.5,1.6,6.1,3.1
		c3.9-0.7,6.4,2.8,8.4,1.5c0.5-2.8-0.5-4.4-1.5-5.7c2.1-2.5-1.1-4.5-0.8-8c0.8,0,1.5,0,2.3,0c-0.4-3.5,4-3.8,4.6-7.3
		c1,0,1.1,1.1,2.3,0.9c2.3-1.3-2.1-2.3,0-3c3.1,1.9,3.1-1.3,6.9-0.7c1.9-2.2,3.5-4.6,4.6-7.6c4.1,2.5,5.3-1.5,8.4-2.3
		c2.9,1.2,5.7,2.4,9.9,2.3c1.6-0.7,2.3-2.3,4.6-2.3c1.2,3.7,10.5,6.9,13,2.3c0.8,1.7,6.3,3.5,6.9,0.8c-1.7-0.8-3.4-1.7-4.6-3.1
		c1-0.3,1.6-1,1.5-2.3c-1.8-1.4-5.4,0.8-6.9-2.3c1.3,0.1,2.4-0.2,3.1-0.8c-0.1,1.4,0.8,1.8,2.3,1.5c3.3-1.3,4.3-2.5,8.4-1.5
		c1.3-0.5,1.3-2.3,2.3-3.1c1,1.3,1.6,3,3.8,3.1c1.6-1,3.2-1.9,4.6-3.1c1.6,2.5,6.6,1.6,9.9,2.3c1.8,1,1.8,3.9,4.6,3.8
		c2.1-1.5,3.5-3.7,6.1-4.6c5.2,1.2,6.9,5.8,11.5,7.6c2,2.3,0.5,8.2,3.8,9.2c-1.5,2.1-1.4,3.1-0.8,6.1c0.8,1.5,3.5,1.1,4.6,2.3
		c0.2,2.6,2.9,2.7,2.3,6.1c1.4,0.8,3.6,1,5.3,1.5c-0.1,2.9,1.5,4.1,3.8,4.6c1.4,0.2,1.7-0.9,3.1-0.8c1.3-3.3,2.6-6.6,2.3-11.5
		c-4.9-12.4-12.1-22.5-17.6-34.4c2.5-1.1-1.6-1.9-0.8-3.8c1.6-1.5,2.8-2.8,1.5-5.3c2.1-1.4,2.8-4.3,3.8-6.9c1.1,0.2,1.3,1.3,2.3,1.5
		c1.5-2.9,4-4.6,6.1-6.9c-0.3-3.6,1.8-4.8,3.1-6.9c1-0.2,1.5-1.1,3.1-0.8c-0.1-3.6,3.1-4,3.8-6.9c2.5,0.7,1.6-2,3.1-2.3
		c1.7,0.2,2.9-0.2,3.1-1.5c-2.9-1.2-1.5-0.6-0.8-3c-0.1-1.4-2.5-2.3-2.3-2.3c2,0,4.1,0,6.1,0c0-3.5,1.3-2.3,0.8-4.6
		c-3.5-1.4-1,3-3.8,2.3c0-1,1-1.1,0.8-2.3c-2.6-1.2-3.3,3.2-4.6,0.8c0.7-1.3,2.4-1.7,4.6-1.5c1.6-2.8,0.8-3.6,0.8-8
		c-3.7,0.4-3.9-0.7-6.1-4.2c0.5,0,1,0,1.5,0c-0.5-3.5-3.4-3.4-1.5-6.5c-3.5-0.6-1.5-6.4-3.8-8.2c1.5,0,1-2,3.1-1.4
		c-2.2,2.8,2.6,5.1,0,8.4c1.6,0.7,3.6,1,3.8,3.1c2.4-0.7,2.9,0.7,3.8,1.5c1.5-1.8,0.5-6.1,0.8-9.2c-2.1-0.7-3.7-1.9-3.8-4.6
		c1.8,0.5,2,2.5,3.8,3.1c0.8-1.7,1.7-2.9,3.1-4.1c0.2-4.3,0.2-10.2-1.5-10.2c1.5,0,3.1,0,4.6,0c0.4-1.1,1.1-1.8,1.9-2.3l-0.7-2.8
		c-1.3,0.5-2.4,0.8-3.5-0.2c4.2-1.9,7.8-4.6,13-5.5c0.1-1.1-0.3-2.9,0.8-3.1c1.6,0.4,2.2,1.9,4.6,1.5c-0.6-2.3,1.3-2.3,0.8-4.6
		c-1.5-1.8-4.1-2.5-5.3-4.6c0.7-3.6,1.8-6.9,1.6-11.5c3.3,0.8,1.9-2.6,5.4-2.3c0-1.5,0-3.1,0-4.6c3.5,0.8,1.5-1.2,3-2.3
		c1.8-0.3,1.6,1.4,3.8,0.8c0.2-3.1,3.3-3.3,3.8-6.1C385.5,28.4,383,29.3,382.5,28.3z"/>
</g>
<g>
	<g>
		<g>
			<rect x="30" y="85" class="st4" width="327.2" height="61.8"/>
			<g id="U.S.News_1_">
				<path class="st5" d="M78.3,145.7c-11.4,0-19.9-4.2-19.9-14.8c0-1,0-30.8,0-30.8h10c0,0,0,29.1,0,29.9c0,4.7,3.6,7.5,10.1,7.5
					c5.7,0,9.8-2.8,9.8-7.5c0-0.9,0-30,0-30h10c0,0,0,30.5,0,31.3C98.3,141.1,90.1,145.7,78.3,145.7z"/>
				<path class="st5" d="M95.9,145.1v-9.2h9v9.2H95.9z"/>
				<path class="st5" d="M126.5,145.8c-13.8,0-18.8-4.1-20.7-9.8c-0.5-1.5-0.6-3.7-0.6-4.6h10.3c0,0.8,0.3,2.2,0.6,2.9
					c1.3,2.6,4.2,3.7,10.3,3.7c6.9,0,9.4-1.9,9.4-4.8c0-3.7-1.9-5-9.3-6.4c-1.3-0.2-4.7-0.9-6.7-1.2c-9-1.6-14.4-5.7-14.4-13.1
					c0-7.6,6.3-12.8,19.7-12.8c11.5,0,16.8,3.9,19.1,9.6c0.6,1.5,1.1,3.2,1.1,4.4H135c0-0.5-0.3-1.6-0.6-2.3
					c-1.2-2.5-3.7-3.8-9.5-3.8c-7.6,0-9.1,1.6-9.1,4.2c0,3.3,2.7,4.6,10.2,6.1c2.3,0.5,5.3,1.1,6.3,1.2c9.1,1.7,13.8,5.4,13.8,13.1
					C146.2,140.3,139.7,145.8,126.5,145.8z"/>
				<path class="st5" d="M143.9,145.1v-9.2h9v9.2H143.9z"/>
				<path class="st5" d="M183.9,145.1l-18.4-30.5v30.5h-9.6v-45h11.7l17.6,29v-29h9.6v45H183.9z"/>
				<path class="st5" d="M229.3,142.7c-2.9,1.9-7,3-12.5,3c-7.5,0-13.6-2.2-16.8-7.2c-1.7-2.6-2.5-5.9-2.5-10.1
					c0-3.8,1.1-7.2,2.9-9.8c3.2-4.7,9.1-7.4,16.4-7.4c7.7,0,13,2.8,16,7.1c2.5,3.7,3.4,8.4,2.9,13.4h-28.6c0,1.6,0.7,2.6,1.9,3.9
					c1.4,1.5,4.2,2.5,7.9,2.5c2.8,0,4.8-0.5,6.2-1.1c1.8-0.8,2.6-1.9,2.8-2.6h9.6C234.6,137.6,232.7,140.5,229.3,142.7z
					 M224.3,121.5c-1.4-1.4-3.8-2.6-7.4-2.6c-3.5,0-6.1,0.9-7.7,2.3c-1.2,1-2.1,3-2.1,4H226C225.9,124.3,225.5,122.8,224.3,121.5z"
					/>
				<path class="st5" d="M283.7,145.1h-11.6c0,0-6.6-19.1-6.7-20.1c-0.1-0.4-0.5-2.4-0.5-2.4s-0.4,1.9-0.4,2.3
					c-0.1,1.2-6.7,20.2-6.7,20.2h-11.7l-12-33.1h10.3l8.1,24.7l7.4-24.7h10.9l7.6,24.7l7.9-24.7h9.6L283.7,145.1z"/>
				<path class="st5" d="M313.9,145.7c-11.4,0-16.8-2.3-18.2-7.6c-0.3-1.3-0.4-2.3-0.4-3.3h9.7c0,0.4,0.1,1,0.3,1.7
					c0.6,1.6,3.2,2,8.5,2c5.6,0,7.3-0.9,7.3-2.9c0-1.9-2-2.3-7-3c-1.3-0.2-5.3-0.8-7.3-1.1c-7.4-1-11-4.2-11-10.6
					c0-5.9,5.4-9.8,16.3-9.8c9.3,0,15.1,2.3,16.8,7.1c0.5,1.2,0.6,3.3,0.6,4H320c0-0.4-0.2-1.4-0.5-1.8c-0.7-0.9-2.5-1.7-7.1-1.7
					c-5.4,0-7,0.9-7,2.4s1.1,2,5.9,2.7c1.9,0.3,6.7,0.9,7.9,1.2c8.1,1.2,11.7,4.2,11.7,10.3C330.9,142.2,325.6,145.7,313.9,145.7z"
					/>
			</g>
			<g id="_x26__World_Report_1_">
				<path class="st5" d="M205.7,106.3c0.3-0.4,0.5-0.9,0.5-1.4h2.5c-0.1,1.2-0.5,2.1-1.2,2.8c0.6,0.5,1.3,0.9,2,1.5H206
					c-0.2-0.1-0.3-0.2-0.5-0.3c-0.7,0.3-1.6,0.5-2.5,0.5c-2.2,0-4.2-0.4-4.2-2c0-0.2,0-0.4,0-0.5c0-1,1-1.6,2.1-2.2
					c-0.5-0.8-0.8-1.4-0.8-1.9c0-0.1,0-0.3,0-0.5c0.1-1.1,1.2-2.2,3.1-2.2c1.8,0,2.8,1,2.9,2.1c0,0.1,0,0.3,0,0.4
					c0,1.2-0.9,1.9-1.9,2.5C204.6,105.4,205.2,105.8,205.7,106.3z M201.5,106.8c0,0.5,0.4,0.6,1.4,0.6c0.2,0,0.5,0,0.8-0.1
					c-0.5-0.5-1.1-0.9-1.5-1.2C201.8,106.3,201.5,106.6,201.5,106.8z M203.8,102.7c0-0.1,0-0.2,0-0.2c0-0.3-0.2-0.5-0.6-0.5
					c-0.4,0-0.6,0.3-0.6,0.6c0,0.1,0,0.2,0,0.2c0,0.2,0.2,0.5,0.4,0.9C203.4,103.4,203.7,103.1,203.8,102.7z"/>
				<path class="st5" d="M223.3,109.2h-3.1c0,0-1.4-5.2-1.4-5.5c0,0.3-1.4,5.5-1.4,5.5h-3.1l-2.6-9h3c0,0,1.4,5.6,1.4,5.8
					c0-0.3,1.4-5.8,1.4-5.8h2.9c0,0,1.4,5.6,1.4,5.8c0-0.3,1.4-5.8,1.4-5.8h2.7L223.3,109.2z"/>
				<path class="st5" d="M235.8,104.6c0,3.2-1.5,4.7-4.9,4.7s-4.9-1.6-4.9-4.7c0-2.9,1.5-4.7,4.9-4.7
					C234.3,100,235.8,101.5,235.8,104.6z M232.9,104.7c0-1.8-0.5-2.6-2.1-2.6c-1.5,0-2,0.7-2,2.6s0.7,2.6,2.1,2.6
					C232.2,107.2,232.9,106.7,232.9,104.7z"/>
				<path class="st5" d="M245.4,104.7c-0.3,0.5-0.7,0.8-1.2,0.9l2.2,3.7h-3.2l-1.6-3h-1.9v3H237v-9h5.8c1.2,0,2,0.3,2.5,0.9
					c0.4,0.5,0.5,1.1,0.5,1.9C245.8,103.7,245.7,104.3,245.4,104.7z M243,102.6c-0.2-0.3-0.4-0.4-0.8-0.4h-2.4v1.9h2.5
					c0.3,0,0.6-0.1,0.8-0.3c0.1-0.2,0.1-0.4,0.1-0.5C243.1,103,243,102.8,243,102.6z"/>
				<path class="st5" d="M247.8,109.2v-9h2.9v6.8h4.4v2.3L247.8,109.2L247.8,109.2z"/>
				<path class="st5" d="M261.7,109.2h-5.2v-9h5c1.7,0,2.7,0.4,3.2,1.2c0.5,0.8,0.7,1.6,0.7,3.2c0,1.9-0.2,2.6-0.6,3.4
					C264.2,108.7,263.3,109.2,261.7,109.2z M262.7,104.5c0-0.6-0.1-1.5-0.3-1.7c-0.4-0.4-0.7-0.5-1.4-0.5h-1.8v4.8h1.8
					c0.7,0,1.1-0.2,1.4-0.5C262.7,106.2,262.7,105.2,262.7,104.5z"/>
				<path class="st5" d="M278.6,104.7c-0.3,0.5-0.7,0.8-1.2,0.9l2.2,3.7h-3.2l-1.6-3h-1.9v3h-2.8v-9h5.8c1.2,0,2,0.3,2.5,0.9
					c0.4,0.5,0.5,1.1,0.5,1.9C278.9,103.7,278.8,104.3,278.6,104.7z M276.1,102.6c-0.2-0.3-0.4-0.4-0.8-0.4h-2.4v1.9h2.4
					c0.3,0,0.6-0.1,0.8-0.3c0.1-0.2,0.1-0.4,0.1-0.5C276.2,103,276.2,102.8,276.1,102.6z"/>
				<path class="st5" d="M281,109.2v-9h7.8v2.1h-5v1.3h4.9v2.2h-4.9v1.3h5.1v2.1H281L281,109.2z"/>
				<path class="st5" d="M298.9,105.4c-0.5,0.6-1.4,0.9-2.5,0.9c-0.3,0-2.9,0-2.9,0v2.8h-2.9v-9h5.6c1.1,0,1.9,0.2,2.4,0.8
					c0.5,0.5,0.8,1.2,0.8,2.3C299.5,104.3,299.3,105,298.9,105.4z M296.6,102.6c-0.2-0.3-0.4-0.4-0.8-0.4h-2.3v2.1h2.2
					c0.5,0,0.8-0.2,0.9-0.4c0.1-0.2,0.1-0.3,0.1-0.6S296.7,102.8,296.6,102.6z"/>
				<path class="st5" d="M310.4,104.6c0,3.2-1.5,4.7-4.9,4.7s-4.9-1.6-4.9-4.7c0-2.9,1.5-4.7,4.9-4.7
					C308.9,100,310.4,101.5,310.4,104.6z M307.5,104.7c0-1.8-0.5-2.6-2.1-2.6c-1.5,0-2,0.7-2,2.6s0.7,2.6,2,2.6
					C306.7,107.2,307.5,106.7,307.5,104.7z"/>
				<path class="st5" d="M320.1,104.7c-0.3,0.5-0.7,0.8-1.2,0.9l2.2,3.7h-3.2l-1.6-3h-1.9v3h-2.8v-9h5.8c1.2,0,2,0.3,2.5,0.9
					c0.4,0.5,0.5,1.1,0.5,1.9C320.5,103.7,320.3,104.3,320.1,104.7z M317.6,102.6c-0.2-0.3-0.4-0.4-0.8-0.4h-2.4v1.9h2.4
					c0.3,0,0.6-0.1,0.8-0.3c0.1-0.2,0.1-0.4,0.1-0.5C317.7,103,317.7,102.8,317.6,102.6z"/>
				<path class="st5" d="M327,102.3v6.8h-2.9v-6.8h-2.9v-2.2h8.7v2.2H327z"/>
			</g>
			<rect x="30" y="144.3" class="st5" width="327.2" height="2.7"/>
			<rect x="30" y="146.9" class="st6" width="327.2" height="7.5"/>
		</g>
	</g>
</g>
<path class="st7" d="M35.9,85.1H30l3.4-3.3C33.4,81.7,34.9,85.1,35.9,85.1z"/>
<polygon class="st7" points="357.2,85 353.5,82 353.5,85 "/>
</svg>
